<?xml version="1.0" standalone="no"?><!DOCTYPE svg PUBLIC "-//W3C//DTD SVG 1.1//EN" "http://www.w3.org/Graphics/SVG/1.1/DTD/svg11.dtd"><svg t="1501483782314" class="icon" style="" viewBox="0 0 1024 1024" version="1.1" xmlns="http://www.w3.org/2000/svg" p-id="16352" xmlns:xlink="http://www.w3.org/1999/xlink" width="32" height="32"><defs><style type="text/css"></style></defs><path d="M802.304 680.96c-48.128 0-87.04 38.912-87.04 86.528 0 47.616 38.912 86.528 87.04 86.528s87.04-38.912 87.04-86.528c0-48.128-38.912-86.528-87.04-86.528z m0 136.704c-28.16 0-50.688-22.528-50.688-50.176s22.528-50.176 50.688-50.176 50.688 22.528 50.688 50.176c0 28.16-22.528 50.176-50.688 50.176z m-271.872-196.608H178.176c-9.728 0-17.92 7.168-18.944 16.896-0.512 10.24 7.168 18.944 16.896 19.456h354.304c7.168 0 13.312-4.096 16.384-10.24v-0.512c4.608-8.704 0.512-19.968-8.192-24.064-2.56-1.024-5.12-1.536-8.192-1.536z m148.48-151.552c0-10.24-8.192-18.432-18.432-18.432H177.152c-10.24 0-18.432 8.192-18.432 18.432s8.192 18.432 18.432 18.432H660.48c10.24 0 18.432-8.704 18.432-18.432z m-501.76-206.336h225.792c10.24 0 18.432-8.192 18.432-18.432s-8.192-18.432-18.432-18.432H177.152c-10.24 0-18.432 8.192-18.432 18.432s8.192 18.432 18.432 18.432z m402.432 676.864c-3.584-4.096-8.704-6.656-13.824-6.144H90.112c-19.968 0-36.864-16.384-36.864-36.352V132.096c0-19.968 16.384-36.352 36.864-36.352h657.92c19.968 0 36.864 16.384 36.864 36.352v359.936c0 9.728 7.68 17.408 17.408 17.408h2.048c9.728 0 17.408-7.68 17.408-16.896V132.096c0-40.448-32.768-73.216-73.728-73.216H90.112c-40.448 0-73.728 32.768-73.728 73.216v765.44c0 40.448 32.768 73.216 73.728 73.216h475.648c10.24 0 18.432-8.192 18.432-17.92-0.512-5.12-1.536-9.216-4.608-12.8z m422.4-232.96c-3.584-3.072-8.192-5.12-12.8-5.12-14.848 0-28.672-8.192-36.352-20.992-7.68-12.8-7.68-28.672 0-41.472 2.56-4.096 3.072-9.216 2.048-13.824-1.536-4.608-4.608-8.704-8.704-11.264l-82.432-47.104c-4.096-2.56-9.216-3.072-13.824-2.048-4.608 1.024-8.704 4.608-11.264 8.704-11.264 19.968-36.864 26.624-57.344 15.36-6.656-3.584-11.776-8.704-15.36-15.36-2.56-4.096-6.656-7.168-11.264-8.704-4.608-1.024-9.728-0.512-13.824 2.048l-82.432 47.104c-4.096 2.56-7.168 6.144-8.704 11.264-1.536 4.608-0.512 9.728 2.048 13.824 5.632 9.728 7.168 20.992 4.096 31.744-3.072 10.752-9.728 19.968-19.456 25.088-6.656 3.584-13.824 5.632-20.992 5.632-5.12 0-9.728 2.048-12.8 5.12-3.072 3.584-5.12 8.192-5.12 12.8v94.72c0 5.12 2.048 9.728 5.12 12.8 3.584 3.072 8.192 5.12 12.8 5.12 23.04 0 41.984 18.432 41.984 41.472 0 7.168-2.048 14.336-5.632 20.992-2.56 4.096-3.072 9.216-2.048 13.824 1.536 4.608 4.608 8.704 8.704 11.264l82.432 47.104c4.096 2.56 9.216 3.072 13.824 2.048 4.608-1.024 8.704-4.608 11.264-8.704 11.264-19.968 36.864-26.624 57.344-15.36 6.656 3.584 11.776 8.704 15.36 15.36 2.56 4.096 6.656 7.168 11.264 8.704 1.536 0.512 3.072 0.512 4.608 0.512 3.072 0 6.144-0.512 9.216-2.56l82.432-47.104c4.096-2.56 7.168-6.144 8.704-11.264 1.536-4.608 0.512-9.728-2.048-13.824-5.632-9.728-7.168-20.992-4.096-31.744 3.072-10.752 9.728-19.968 19.456-25.088 6.656-3.584 13.824-5.632 20.992-5.632 5.12 0 9.728-2.048 12.8-5.12 3.072-3.584 5.12-8.192 5.12-12.8v-94.72c0.512-4.608-1.536-9.216-5.12-12.8z m-31.232 91.648c-7.168 1.536-14.336 4.608-20.992 8.192-31.744 18.432-46.08 55.808-35.84 89.6l-54.272 31.232c-5.12-5.632-11.264-10.24-17.92-13.824-12.288-7.168-25.6-10.24-38.912-10.24-6.656 0-13.824 1.024-20.48 2.56-14.336 3.584-26.624 11.264-36.864 21.504l-54.272-31.232c2.048-7.168 3.072-14.848 3.072-22.528 0-36.864-25.6-67.584-60.416-75.776v-62.464c7.168-1.536 14.336-4.608 20.992-8.192 18.432-10.24 31.232-27.136 36.352-47.616 4.096-13.824 3.584-28.672-0.512-42.496l54.272-31.232c5.12 5.632 11.264 10.24 17.92 13.824 31.744 18.432 71.68 11.776 96.256-13.824l54.272 31.232c-5.632 20.48-3.584 42.496 7.168 60.928 10.752 18.432 29.184 31.744 49.664 36.864V798.72z" p-id="16353" fill="#8a8a8a"></path></svg>