<?xml version="1.0" standalone="no"?><!DOCTYPE svg PUBLIC "-//W3C//DTD SVG 1.1//EN" "http://www.w3.org/Graphics/SVG/1.1/DTD/svg11.dtd"><svg t="1501659862545" class="icon" style="" viewBox="0 0 1024 1024" version="1.1" xmlns="http://www.w3.org/2000/svg" p-id="1922" xmlns:xlink="http://www.w3.org/1999/xlink" width="81" height="81"><defs><style type="text/css"></style></defs><path d="M363.583251 484.137419 153.084049 484.137419c-62.87091 0-114.02087-51.14996-114.02087-114.02087L39.063179 150.260236c0-62.87091 51.148937-114.02087 114.02087-114.02087l210.499202 0c62.871933 0 114.021893 51.148937 114.021893 114.02087l0 219.85529C477.605144 432.987459 426.455183 484.137419 363.583251 484.137419zM153.084049 77.171614c-40.300868 0-73.088622 32.787754-73.088622 73.088622l0 219.85529c0 40.300868 32.787754 73.088622 73.088622 73.088622l210.499202 0c40.301891 0 73.089645-32.787754 73.089645-73.088622L436.672896 150.260236c0-40.300868-32.787754-73.088622-73.089645-73.088622L153.084049 77.171614z" p-id="1923" fill="#8a8a8a"></path><path d="M875.038852 484.137419 664.540673 484.137419c-62.8617 0-114.003474-51.14996-114.003474-114.02087L550.5372 150.260236c0-62.87091 51.142797-114.02087 114.003474-114.02087l210.498178 0c62.87091 0 114.021893 51.148937 114.021893 114.02087l0 219.85529C989.060745 432.987459 937.910784 484.137419 875.038852 484.137419zM664.540673 77.171614c-40.291658 0-73.071226 32.787754-73.071226 73.088622l0 219.85529c0 40.300868 32.779567 73.088622 73.071226 73.088622l210.498178 0c40.301891 0 73.089645-32.787754 73.089645-73.088622L948.128497 150.260236c0-40.300868-32.787754-73.088622-73.089645-73.088622L664.540673 77.171614z" p-id="1924" fill="#8a8a8a"></path><path d="M363.583251 1004.979808 153.084049 1004.979808c-62.87091 0-114.02087-51.148937-114.02087-114.02087L39.063179 671.104671c0-62.87091 51.148937-114.02087 114.02087-114.02087l210.499202 0c62.871933 0 114.021893 51.148937 114.021893 114.02087l0 219.85529C477.605144 953.830871 426.455183 1004.979808 363.583251 1004.979808zM153.084049 598.016049c-40.300868 0-73.088622 32.787754-73.088622 73.088622l0 219.85529c0 40.300868 32.787754 73.088622 73.088622 73.088622l210.499202 0c40.301891 0 73.089645-32.787754 73.089645-73.088622L436.672896 671.104671c0-40.300868-32.787754-73.088622-73.089645-73.088622L153.084049 598.016049z" p-id="1925" fill="#8a8a8a"></path><path d="M875.038852 1004.979808 664.540673 1004.979808c-62.8617 0-114.003474-51.148937-114.003474-114.02087L550.5372 671.104671c0-62.87091 51.142797-114.02087 114.003474-114.02087l210.498178 0c62.87091 0 114.021893 51.148937 114.021893 114.02087l0 219.85529C989.060745 953.830871 937.910784 1004.979808 875.038852 1004.979808zM664.540673 598.016049c-40.291658 0-73.071226 32.787754-73.071226 73.088622l0 219.85529c0 40.300868 32.779567 73.088622 73.071226 73.088622l210.498178 0c40.301891 0 73.089645-32.787754 73.089645-73.088622L948.128497 671.104671c0-40.300868-32.787754-73.088622-73.089645-73.088622L664.540673 598.016049z" p-id="1926" fill="#8a8a8a"></path></svg>