<?xml version="1.0" standalone="no"?><!DOCTYPE svg PUBLIC "-//W3C//DTD SVG 1.1//EN" "http://www.w3.org/Graphics/SVG/1.1/DTD/svg11.dtd"><svg t="1499132603862" class="icon" style="" viewBox="0 0 1024 1024" version="1.1" xmlns="http://www.w3.org/2000/svg" p-id="2490" xmlns:xlink="http://www.w3.org/1999/xlink" width="16" height="16"><defs><style type="text/css"></style></defs><path d="M512 126.7c-246.5 0-447.3 167.6-447.3 373.8 0 87 35 166.7 95 230.4 0 0-4.5 142.8-37.7 163.4 0 0 121 15 198.1-54.9 58.3 23.3 122.8 35.9 191.8 35.9 246.5 0 447.3-167.6 447.3-373.8 0.1-207.2-200.7-374.8-447.2-374.8z m0 711.8c-62.8 0-122.8-11.7-178.4-33.2-4.5-1.8-9-2.7-13.4-2.7-9 0-17 3.6-24.2 9-34.1 31.4-79.8 41.6-115.6 48.8 3.6-14.3 6.3-25.5 8.1-44.3 4.5-35.9 6.3-69 6.3-80.7 1.8-10.8-1.8-21.5-9-29.6-55.6-59.2-85.2-130.9-85.2-205.3 0-186.5 184.7-338 411.5-338s411.5 151.5 411.5 338c-0.1 186.5-184.8 338-411.6 338z" p-id="2491" fill="#1296db"></path><path d="M345.3 517.6z m-48.5 0c0 26.7 21.7 48.4 48.4 48.4s48.4-21.7 48.4-48.4-21.7-48.4-48.4-48.4c-26.7-0.1-48.4 21.6-48.4 48.4M525.4 517.6z m-48.4 0c0 26.7 21.7 48.4 48.4 48.4s48.4-21.7 48.4-48.4-21.7-48.4-48.4-48.4c-26.7-0.1-48.4 21.6-48.4 48.4M705.6 517.6z m-48.4 0c0 26.7 21.7 48.4 48.4 48.4s48.4-21.7 48.4-48.4-21.7-48.4-48.4-48.4c-26.7-0.1-48.4 21.6-48.4 48.4" p-id="2492" fill="#1296db"></path></svg>