<?xml version="1.0" standalone="no"?><!DOCTYPE svg PUBLIC "-//W3C//DTD SVG 1.1//EN" "http://www.w3.org/Graphics/SVG/1.1/DTD/svg11.dtd"><svg t="1498611353781" class="icon" style="" viewBox="0 0 1024 1024" version="1.1" xmlns="http://www.w3.org/2000/svg" p-id="1994" xmlns:xlink="http://www.w3.org/1999/xlink" width="16" height="16"><defs><style type="text/css"></style></defs><path d="M105.191784 694.065616 64.514339 694.065616l0 223.757157c0 22.463618 18.21178 40.683585 40.677445 40.683585L328.925405 958.506357l0-40.683585L105.191784 917.822772 105.191784 694.065616zM105.191784 104.159268 328.925405 104.159268 328.925405 63.47159 105.191784 63.47159c-22.465664 0-40.677445 18.213827-40.677445 40.687678l0 223.754087 40.677445 0L105.191784 104.159268zM918.762167 917.823795 695.031617 917.823795l0 40.683585 223.731574 0c22.469758 0 40.681538-18.219967 40.681538-40.683585L959.444728 694.065616l-40.681538 0L918.763191 917.823795zM918.762167 63.47159 695.031617 63.47159l0 40.687678 223.731574 0 0 223.754087 40.681538 0L959.444728 104.159268C959.443705 81.685417 941.231925 63.47159 918.762167 63.47159zM939.102425 490.641553 84.854597 490.641553c-11.232832 0-20.339234 9.108448-20.339234 20.349467 0 11.232832 9.106402 20.339234 20.339234 20.339234L939.102425 531.330254c11.234879 0 20.341281-9.106402 20.341281-20.339234C959.443705 499.751025 950.33628 490.641553 939.102425 490.641553z" p-id="1995" fill="#707070"></path></svg>