<?xml version="1.0" standalone="no"?><!DOCTYPE svg PUBLIC "-//W3C//DTD SVG 1.1//EN" "http://www.w3.org/Graphics/SVG/1.1/DTD/svg11.dtd"><svg t="1498526219571" class="icon" style="" viewBox="0 0 1024 1024" version="1.1" xmlns="http://www.w3.org/2000/svg" p-id="2101" xmlns:xlink="http://www.w3.org/1999/xlink" width="16" height="16"><defs><style type="text/css"></style></defs><path d="M739.696 568.28h-224c-30.912 0-56-25.088-56-56v-224c0-30.912 25.088-56 56-56 30.912 0 56 25.088 56 56v168h168c30.912 0 56 25.088 56 56s-25.088 56-56 56M511.384 8c-277.984 0-503.384 225.344-503.384 503.328s225.4 503.328 503.384 503.328c277.984 0 503.328-225.344 503.328-503.328 0-277.984-225.344-503.328-503.328-503.328z" fill="#1296db" p-id="2102"></path></svg>