<?xml version="1.0" standalone="no"?><!DOCTYPE svg PUBLIC "-//W3C//DTD SVG 1.1//EN" "http://www.w3.org/Graphics/SVG/1.1/DTD/svg11.dtd"><svg t="1499313720258" class="icon" style="" viewBox="0 0 1024 1024" version="1.1" xmlns="http://www.w3.org/2000/svg" p-id="2653" xmlns:xlink="http://www.w3.org/1999/xlink" width="16" height="16"><defs><style type="text/css"></style></defs><path d="M684.816974 644.973524L551.397289 511.553838l133.415592-133.414568c10.997472-10.999518 10.997472-28.832675 0-39.829124-10.998495-10.997472-28.831652-10.997472-39.828101 0L511.569188 471.724715 378.145409 338.299913c-10.997472-10.997472-28.830629-10.997472-39.824007-0.001024-10.998495 10.997472-10.998495 28.830629 0 39.827078l133.419686 133.419685-133.415593 133.417639c-10.996448 10.996448-10.992355 28.831652 0.00614 39.8281 10.995425 10.993378 28.832675 10.997472 39.825031 0.005117l133.415592-133.416616 133.419685 133.418663c10.999518 10.999518 28.830629 10.999518 39.827078 0 10.998495-10.997472 10.997472-28.827559-0.001024-39.825031h-0.001023zM511.569188 64.839751c-246.394736 0-446.705901 200.445218-446.705901 446.713064 0 246.26273 200.312188 446.705901 446.705901 446.705902 246.263753 0 446.707948-200.445218 446.707948-446.705902 0-246.266823-200.38075-446.713065-446.707948-446.713064z m0 833.817519c-213.7175 0-387.615085-173.705204-387.615085-387.103432-0.005117-213.46372 173.828001-387.173017 387.615085-387.173016 213.657124 0 387.552663 173.70725 387.552663 387.173016 0 213.45451-173.899632 387.105478-387.552663 387.105479v-0.002047z" fill="#d81e06" p-id="2654"></path></svg>