<?xml version="1.0" standalone="no"?><!DOCTYPE svg PUBLIC "-//W3C//DTD SVG 1.1//EN" "http://www.w3.org/Graphics/SVG/1.1/DTD/svg11.dtd"><svg t="1498637953946" class="icon" style="" viewBox="0 0 1024 1024" version="1.1" xmlns="http://www.w3.org/2000/svg" p-id="5711" xmlns:xlink="http://www.w3.org/1999/xlink" width="16" height="16"><defs><style type="text/css"></style></defs><path d="M800 672 800 672l-192 185.6c172.8 6.4 307.2 38.4 307.2 76.8 0 44.8-179.2 76.8-403.2 76.8-224 0-403.2-32-403.2-76.8 0-38.4 128-64 294.4-76.8l-192-185.6 0 0C153.6 601.6 108.8 505.6 108.8 403.2c0-211.2 179.2-384 403.2-384s403.2 172.8 403.2 384C915.2 505.6 870.4 601.6 800 672zM185.6 934.4c0 25.6 147.2 44.8 326.4 44.8s326.4-19.2 326.4-44.8c0-19.2-115.2-38.4-262.4-38.4l-64 64-64-64C300.8 896 185.6 908.8 185.6 934.4zM518.4 192C390.4 192 294.4 288 294.4 403.2s102.4 217.6 224 217.6 224-96 224-217.6S640 192 518.4 192z" p-id="5712" fill="#707070"></path></svg>