<?xml version="1.0" standalone="no"?><!DOCTYPE svg PUBLIC "-//W3C//DTD SVG 1.1//EN" "http://www.w3.org/Graphics/SVG/1.1/DTD/svg11.dtd"><svg t="1498721576497" class="icon" style="" viewBox="0 0 1025 1024" version="1.1" xmlns="http://www.w3.org/2000/svg" p-id="5038" xmlns:xlink="http://www.w3.org/1999/xlink" width="16.015625" height="16"><defs><style type="text/css"></style></defs><path d="M825.387197 1023.999996c-49.416-0.9056-94.224-9.9104-138.121599-23.3248-143.083199-43.72-270.748799-114.8032-379.155199-218.361599-82.9632-79.2544-149.700799-171.215999-204.788799-271.686399-38.1712-69.6176-69.6976-142.004799-89.4144-219.147199-8.5952-33.6304-14.7312-67.6928-13.816-102.6064 0.2432-9.2768 1.2736-18.6064 2.824-27.7616 2.9152-17.208 10.552-31.8864 23.2496-44.3504C62.8976 80.7072 99.216 44.2288 135.575999 7.7952c6.9984-7.0128 15.2272-8.8176 24.52-7.2912 13.4176 2.2048 25.9008 7.4288 36.8032 15.1472 20.9584 14.8384 42.1408 29.6064 61.5248 46.3744 42.5808 36.8352 80.4624 78.216 113.2128 124.1232 5.1648 7.2384 9.4656 15.088 14.3984 22.5008 13.5472 20.3616 12.608 41.4544 2.024 62.2464-6.1184 12.0192-14.224 23.0304-21.4848 34.464-8.7824 13.8288-18.6816 27.0688-26.2272 41.5376-21.8864 41.968-24.072 84.7984-4.184 128.545599 16.7408 36.824 39.1136 69.904 64.4912 101.104 27.0448 33.2496 56.0032 64.656 90.776 90.1248 22.6144 16.5632 47.1184 29.024 75.0336 34.2208 24.2864 4.5216 47.8704 1.3232 70.416-7.3744 22.5952-8.7184 44.632-18.9824 66.5376-29.3632 19.552-9.2656 38.7328-19.3488 57.8176-29.56 20.7696-11.1136 39.7216-8.5856 59.208 4.104 28.8176 18.7648 55.5168 40.0592 80.7792 63.2256 36.0672 33.0752 70.0096 68.128 97.8224 108.6288 10.6784 15.5504 20.4672 31.632 24.2528 50.552 2.1568 10.7776-0.6128 19.4304-8.7136 27.4048-35.5296 34.968-71.1904 69.8352-105.6592 105.8352-17.1696 17.9328-37.7248 25.7648-61.3184 28.208C839.150397 1023.423996 830.633597 1023.670396 825.387197 1023.999996zM805.207997 969.195196c1.824 0 3.648 0.0192 5.472-0.0032 17.0896-0.2112 31.5344-5.3344 43.8752-18.3424 24.68-26.0128 50.4176-51.0288 75.8912-76.2832 9.2832-9.2048 11.5248-15.0176 5.9472-26.9872-4.5728-9.8144-10.0736-19.56-16.9168-27.896-37.1536-45.2624-81.72-81.9152-132.395199-111.1344-6.0672-3.4976-12.8912-5.8-19.5664-8.0608-2.1296-0.7216-5.0944 0.0096-7.368 0.8816-17.912 6.872-35.3904 15.1104-53.6816 20.7104-41.1504 12.5984-83.7056 18.6224-126.2192 24.6576-15.5456 2.2064-31.0032 3.5904-46.5376 0.4704-48.0128-9.6416-89.4128-32.8224-127.2416-62.92-20.528-16.3328-35.3072-37.8944-50.4128-58.952-27.5488-38.4016-52.768-78.2192-70.7328-122.1856-7.8816-19.2912-13.8144-39.1232-11.264-60.24 2.3504-19.4672 4.784-39.0096 8.8448-58.1664 8.4096-39.68 22.4752-77.7056 36.6928-115.5792 4.5856-12.216 4.5184-23.544-1.8032-34.3424-9.5904-16.3808-19.0512-33.0192-30.456-48.1216-25.6272-33.9328-54.68-64.768-90.3232-88.512-8.6048-5.7328-18.6544-9.5152-28.4048-13.24-7.1904-2.7472-13.7312-0.2736-19.2688 5.3808-27.3664 27.9456-54.8368 55.7888-82.3648 83.576-5.9168 5.9728-9.4288 13.016-11.2144 21.1232-3.0144 13.6832-2.2608 27.3984-0.408 41.1008 4.4512 32.9152 14.5744 64.2864 26.7312 95.0112 33.9552 85.8128 80.496 164.630399 134.382399 239.238399 73.4016 101.6288 158.523199 191.566399 263.017599 262.076799 72.312 48.7936 148.396799 90.1536 231.417599 117.8464C741.510397 960.511996 772.655997 968.489596 805.207997 969.195196z" p-id="5039" fill="#228B22"></path></svg>