<?xml version="1.0" standalone="no"?><!DOCTYPE svg PUBLIC "-//W3C//DTD SVG 1.1//EN" "http://www.w3.org/Graphics/SVG/1.1/DTD/svg11.dtd"><svg t="1501484311884" class="icon" style="" viewBox="0 0 1024 1024" version="1.1" xmlns="http://www.w3.org/2000/svg" p-id="18023" xmlns:xlink="http://www.w3.org/1999/xlink" width="32" height="32"><defs><style type="text/css"></style></defs><path d="M269.013333 270.08C311.466667 142.933333 482.133333 125.226667 586.026667 181.973333c87.04 56.533333 96.426667 172.586667 89.173333 266.453334-3.413333 82.346667-53.76 149.76-100.266667 213.546666 85.12 92.8 213.333333 125.226667 307.2 206.72 43.52 33.28 34.346667 126.72-29.226666 129.066667-241.493333 6.826667-483.413333 0-725.12 3.2-43.946667 5.12-83.84-13.013333-119.466667-36.693333 2.56-16.213333 7.893333-48.853333 10.453333-65.066667 80.426667-106.24 227.2-128.426667 317.013334-224 13.653333-26.24-13.653333-48.64-24.32-69.973333-74.026667-93.653333-78.506667-225.493333-42.453334-335.146667m45.44 18.986667c-35.84 114.133333-17.28 250.026667 74.24 333.44-4.053333 34.133333 1.92 75.306667-28.373333 99.626666-78.08 69.973333-179.84 105.173333-264.32 165.973334-24.746667 11.946667-26.24 39.466667-31.36 63.146666 264.533333 3.413333 529.066667 2.133333 793.6 0.64-5.546667-26.24-8.746667-55.68-36.266667-68.48-84.053333-59.946667-186.24-93.653333-261.333333-166.4-26.026667-23.466667-20.48-61.653333-26.453333-93.013333 102.4-94.08 125.866667-264.533333 50.346666-380.8-74.453333-69.76-233.6-61.44-270.08 45.866667zM756.48 382.506667c84.053333-7.04 168.533333-1.28 252.586667-2.346667 0.853333 12.8 2.346667 38.826667 3.2 51.626667-91.306667 1.493333-182.826667 2.346667-274.133334-0.853334 4.693333-12.16 13.653333-36.266667 18.346667-48.426666zM794.666667 541.653333c74.453333-0.426667 148.906667-1.28 223.146666 3.413334l-11.733333 40.746666c-69.76 14.08-141.653333 5.546667-212.266667 5.76l0.853334-49.92zM857.386667 754.346667c4.693333-21.546667 0.64-57.173333 34.56-52.053334 44.8 2.986667 128.853333-20.693333 124.586666 50.133334-52.906667 1.706667-106.026667 1.92-159.146666 1.92z" fill="#8a8a8a" p-id="18024"></path></svg>