<?xml version="1.0" standalone="no"?><!DOCTYPE svg PUBLIC "-//W3C//DTD SVG 1.1//EN" "http://www.w3.org/Graphics/SVG/1.1/DTD/svg11.dtd"><svg t="1501483400726" class="icon" style="" viewBox="0 0 1024 1024" version="1.1" xmlns="http://www.w3.org/2000/svg" p-id="12643" xmlns:xlink="http://www.w3.org/1999/xlink" width="32" height="32"><defs><style type="text/css"></style></defs><path d="M512 190.464c8.192 0 16.384 3.072 21.504 9.216L845.824 512c-37.888 0-68.608 30.72-68.608 68.608v233.472c0 11.264-9.216 20.48-20.48 20.48H618.496c-11.264 0-20.48-9.216-20.48-20.48V672.768c0-33.792-27.648-61.44-61.44-61.44h-47.104c-33.792 0-61.44 27.648-61.44 61.44v141.312c0 11.264-9.216 20.48-20.48 20.48H267.264c-11.264 0-20.48-9.216-20.48-20.48V579.584c0-37.888-30.72-68.608-68.608-68.608l312.32-312.32c5.12-5.12 13.312-8.192 21.504-8.192m0-30.72c-15.36 0-31.744 6.144-43.008 18.432L147.456 498.688c-16.384 16.384-5.12 44.032 18.432 44.032h12.288c21.504 0 37.888 17.408 37.888 37.888v233.472c0 28.672 22.528 51.2 51.2 51.2h140.288c28.672 0 51.2-22.528 51.2-51.2V672.768c0-17.408 13.312-30.72 30.72-30.72h47.104c17.408 0 30.72 13.312 30.72 30.72v141.312c0 28.672 22.528 51.2 51.2 51.2h137.216c28.672 0 51.2-22.528 51.2-51.2V579.584c0-21.504 17.408-37.888 37.888-37.888h12.288c22.528 0 33.792-27.648 18.432-44.032L555.008 177.152c-11.264-11.264-27.648-17.408-43.008-17.408z" fill="#1092ed" p-id="12644"></path></svg>